<svg id="b9135545-45a6-4ae8-bbcb-a67a57a8b708" data-name="Capa 1" xmlns="http://www.w3.org/2000/svg" viewBox="0 0 768 768"><rect x="0.5" y="0.5" width="767" height="767" rx="132.64" style="fill:#fbf8f1"/><path d="M634.86,1A132.13,132.13,0,0,1,767,133.14V634.86A132.13,132.13,0,0,1,634.86,767H133.14A132.13,132.13,0,0,1,1,634.86V133.14A132.13,132.13,0,0,1,133.14,1H634.86m0-1H133.14A133.14,133.14,0,0,0,0,133.14V634.86A133.14,133.14,0,0,0,133.14,768H634.86A133.14,133.14,0,0,0,768,634.86V133.14A133.14,133.14,0,0,0,634.86,0Z" style="fill:#fbf8f1"/><path d="M385.81,256.42" style="fill:none;stroke:#837059;stroke-miterlimit:10"/><path d="M381.65,249.88c-21.51,0-39.15,3.18-51,3.84a160.62,160.62,0,0,0-10.26-25.84c-25.27-50.4-71-75.07-95.16-85.64A424.5,424.5,0,0,0,159.83,270.7c-25.8,83.53-19.54,155.63-13.09,195.06,4.93,21,18,62.72,54.72,98.72,58.11,56.93,137.29,61.71,180.19,61.25,51.41-.54,144.91-7.56,202.2-79.69,34.07-42.89,39.47-97.87,42.82-149.86,3.65-56.51-29.73-163-29.73-163L459,207.06l-25,45.2S412.58,249.88,381.65,249.88Z" style="fill:none;stroke:#837059;stroke-miterlimit:10;stroke-width:20px"/><path d="M459,207.06c-.62,24.68-3.93,46.07.38,81.68,8.68,71.82,28.17,101.49,28.17,101.49,10.08,1.58,75.32-13.92,109.43-157" style="fill:none;stroke:#837059;stroke-miterlimit:10;stroke-width:18px"/><path d="M306.72,270.1" style="fill:none;stroke:#837059;stroke-miterlimit:10;stroke-width:11px"/><path d="M305.53,264.15a135,135,0,0,0-73.74-90.39,305.61,305.61,0,0,0-50,115.37" style="fill:none;stroke:#837059;stroke-miterlimit:10;stroke-width:15px"/><circle cx="294.82" cy="387.85" r="20.81" style="fill:none;stroke:#837059;stroke-miterlimit:10;stroke-width:16px"/><path d="M495,384.73a24.31,24.31,0,0,1,.23,3.12A20.82,20.82,0,1,1,474.43,367" style="fill:none;stroke:#837059;stroke-miterlimit:10;stroke-width:16px"/><path d="M494.84,375.24" style="fill:none;stroke:#837059;stroke-miterlimit:10;stroke-width:14px"/><path d="M375,437.21h34.95a4.51,4.51,0,0,1,3.43,7.44l-16,18.76-18.93,22.18a4.51,4.51,0,0,1-6.86,0l-18.94-22.18-16-18.76a4.51,4.51,0,0,1,3.43-7.44Z" style="fill:none;stroke:#837059;stroke-miterlimit:10;stroke-width:16px"/><path d="M369,487.17v70.19c0,7.72,12,7.73,12,0V487.17c0-7.72-12-7.74-12,0Z" style="fill:#837059"/><path d="M183.82,470A268.86,268.86,0,0,1,325,480.72c9.11,3.23,13-11.26,4-14.46a284,284,0,0,0-149.09-10.71c-9.47,1.85-5.46,16.31,4,14.47Z" style="fill:#837059"/><path d="M237.94,515.58a122.55,122.55,0,0,1,85.52,8.52c8.65,4.2,16.27-8.73,7.58-13-30.38-14.75-64.34-18.77-97.08-10-9.32,2.49-5.37,17,4,14.47Z" style="fill:#837059"/><path d="M580.79,455.7A284,284,0,0,0,431.7,466.4c-9,3.2-5.15,17.7,4,14.47a268.86,268.86,0,0,1,141.13-10.71c9.43,1.84,13.46-12.61,4-14.46Z" style="fill:#837059"/><path d="M526.67,501.26c-32.74-8.75-66.7-4.73-97.08,10-8.68,4.22-1.08,17.15,7.57,12.95a122.59,122.59,0,0,1,85.53-8.52c9.33,2.49,13.32-12,4-14.46Z" style="fill:#837059"/><path d="M548.34,303.74" style="fill:none;stroke:#837059;stroke-miterlimit:10;stroke-width:11px"/></svg>